<svg version="1.1" xmlns="http://www.w3.org/2000/svg" viewBox="0 0 147.60682078140917 104.30980159157298" width="295.21364156281834" height="208.61960318314595">
  <!-- svg-source:excalidraw -->
  
  <defs>
    <style class="style-fonts">
      @font-face {
        font-family: "Virgil";
        src: url("../Virgil.woff2");
      }
      @font-face {
        font-family: "Cascadia";
        src: url("../Cascadia.woff2");
      }
    </style>
    
  </defs>
  <g stroke-linecap="round"><g transform="translate(21.156720874645316 -3.7948282983567196) rotate(340.0003874574992 41.84614372484691 39.59299787751513)"><path d="M0.86 -0.62 C10.31 3.18, 42.26 9.6, 56.09 23 C69.92 36.41, 79.09 70.45, 83.84 79.8 M-0.15 1.67 C9.75 5.09, 44.59 8.43, 58.45 21.15 C72.3 33.86, 78.52 68.09, 82.97 77.97" stroke="#00A4EF" stroke-width="1" fill="none"></path></g></g><mask></mask><g stroke-linecap="round"><g transform="translate(20.149383980252423 14.410710459904067) rotate(340.0003874574992 36.92456204264556 31.844711684813774)"><path d="M-1.1 -0.91 C7.24 2.42, 37.84 9.25, 50.12 20.02 C62.4 30.78, 68.75 56.12, 72.57 63.69 M0.53 1.22 C8.79 4.69, 37.33 10.59, 49.73 21.15 C62.14 31.72, 71.06 57.56, 74.95 64.6" stroke="#00A4EF" stroke-width="1" fill="none"></path></g></g><mask></mask><g stroke-linecap="round"><g transform="translate(14.526208514996824 14.410596793542823) rotate(340.0003874574992 -2.09374738075212 7.185744467431732)"><path d="M-0.53 1.17 C-1.35 3.22, -4.08 10.29, -4.77 12.5 M1.39 0.74 C0.43 2.9, -4.46 11.63, -5.57 13.63" stroke="#00A4EF" stroke-width="1" fill="none"></path></g></g><mask></mask><g stroke-linecap="round"><g transform="translate(111.82889979132119 51.85592800019458) rotate(340.0003874574992 13.704832145861133 -2.1821869953432724)"><path d="M-0.28 1.16 C4.28 0.43, 23.29 -4.5, 27.69 -5.52 M1.77 0.72 C6.19 0.24, 22.53 -3.61, 26.98 -4.36" stroke="#00A4EF" stroke-width="1" fill="none"></path></g></g><mask></mask><g stroke-linecap="round"><g transform="translate(105.29279289046599 66.631192248351) rotate(340.0003874574992 -13.774992169655775 5.573997388721864)"><path d="M0.2 0.79 C-4.44 2.81, -23.26 9.24, -27.75 10.99 M-1.15 0.16 C-5.45 1.94, -21.2 7.76, -25.59 9.32" stroke="#00A4EF" stroke-width="1" fill="none"></path></g></g><mask></mask><g stroke-linecap="round"><g transform="translate(84.80245414822912 72.63980392561314) rotate(340.0003874574992 21.58932601849358 15.302877856667465)"><path d="M0.51 1.16 C7.71 5.76, 36.69 23.77, 43.86 28.5 M-0.68 0.72 C6.33 5.43, 35.83 25.41, 43.07 29.88" stroke="#00A4EF" stroke-width="1" fill="none"></path></g></g><mask></mask><g stroke-linecap="round"><g transform="translate(123.16023500733718 90.86351575828564) rotate(340.0003874574992 10.696759772973337 -23.536307371310954)"><path d="M-0.91 -0.44 C2.96 -8.22, 18.57 -38.96, 22.3 -46.63 M0.81 -1.72 C4.7 -9.33, 18.6 -38.01, 21.95 -45.26" stroke="#00A4EF" stroke-width="1" fill="none"></path></g></g><mask></mask></svg>