<svg version="1.1" xmlns="http://www.w3.org/2000/svg" viewBox="0 0 898.15625 535.3595866243837" width="1796.3125" height="1070.7191732487674">
  <!-- svg-source:excalidraw -->
  
  <defs>
    <style class="style-fonts">
      @font-face {
        font-family: "Virgil";
        src: url("../Virgil.woff2");
      }
      @font-face {
        font-family: "Cascadia";
        src: url("../Cascadia.woff2");
      }
    </style>
    
  </defs>
  <rect x="0" y="0" width="898.15625" height="535.3595866243837" fill="#ffffff"></rect><g transform="translate(37.9091796875 10.563232421875) rotate(0 34.691986083984375 17.5)"><text x="34.691986083984375" y="0" font-family="Virgil, Segoe UI Emoji" font-size="28px" fill="#1e1e1e" text-anchor="middle" style="white-space: pre;" direction="ltr" dominant-baseline="text-before-edge">Text</text></g><g transform="translate(691.1087646484375 10.192138671875) rotate(0 43.6099853515625 17.5)"><text x="43.6099853515625" y="0" font-family="Virgil, Segoe UI Emoji" font-size="28px" fill="#1e1e1e" text-anchor="middle" style="white-space: pre;" direction="ltr" dominant-baseline="text-before-edge">Vector</text></g><g transform="translate(327.7978820800781 10) rotate(0 108.54196166992188 17.5)"><text x="108.54196166992188" y="0" font-family="Virgil, Segoe UI Emoji" font-size="28px" fill="#1e1e1e" text-anchor="middle" style="white-space: pre;" direction="ltr" dominant-baseline="text-before-edge">Embedding model</text></g><g stroke-linecap="round" transform="translate(10 59.91015625) rotate(0 63.02865238474476 88.951171875)"><path d="M31.51 0 M31.51 0 C48.55 -0.25, 61.28 -0.32, 94.54 0 M31.51 0 C47.81 0.8, 66.33 0.42, 94.54 0 M94.54 0 C116.79 0.12, 125.29 9.85, 126.06 31.51 M94.54 0 C117.39 -1.35, 128.17 9.57, 126.06 31.51 M126.06 31.51 C124.99 67.86, 126.72 108.17, 126.06 146.39 M126.06 31.51 C125.88 56.76, 125.81 83.03, 126.06 146.39 M126.06 146.39 C127.4 169.14, 114.68 179.46, 94.54 177.9 M126.06 146.39 C125.3 166.05, 115.68 177.32, 94.54 177.9 M94.54 177.9 C79.01 175.59, 67.38 176.88, 31.51 177.9 M94.54 177.9 C74.46 177.26, 55.22 178.08, 31.51 177.9 M31.51 177.9 C11.63 179.39, 0.23 168.8, 0 146.39 M31.51 177.9 C11.41 177.51, -1.44 168.94, 0 146.39 M0 146.39 C2.28 120.5, 0.6 96.77, 0 31.51 M0 146.39 C1.09 114.51, 0.01 82.35, 0 31.51 M0 31.51 C-1.64 10.63, 8.75 1.96, 31.51 0 M0 31.51 C-1.61 11.24, 11 0.27, 31.51 0" stroke="#1e1e1e" stroke-width="1" fill="none"></path></g><g stroke-linecap="round"><g transform="translate(23.79480043160231 76.72132790287225) rotate(0 7.248361317723635 -0.3701660728776517)"><path d="M-0.15 0.18 C2.59 0.2, 13.76 -0.71, 16.18 -0.95 M-1.69 -0.77 C1 -0.51, 12.67 0.15, 15.76 0.21" stroke="#1e1e1e" stroke-width="1" fill="none"></path></g></g><mask></mask><g stroke-linecap="round"><g transform="translate(100.84600384060025 75.68585718512287) rotate(0 14.045036168707213 -0.00736899921369627)"><path d="M0.23 0.03 C4.75 0.15, 22.39 1.04, 26.96 1.08 M-1.11 -1 C3.8 -1.24, 24.55 -1.02, 29.2 -0.58" stroke="#1e1e1e" stroke-width="1" fill="none"></path></g></g><mask></mask><g stroke-linecap="round"><g transform="translate(23.021507721671867 86.68674046269558) rotate(0 12.934900896052 0.5837461661841985)"><path d="M-0.88 0.81 C1.48 0.87, 10.22 -0.7, 14.83 -0.55 C19.43 -0.39, 24.87 1.44, 26.75 1.72 M0.85 0.2 C3 0.47, 9.66 0.69, 13.89 0.61 C18.12 0.54, 24.14 -0.55, 26.21 -0.26" stroke="#1e1e1e" stroke-width="1" fill="none"></path></g></g><mask></mask><g stroke-linecap="round"><g transform="translate(24.750823268194495 116.06921517734867) rotate(0 50.6885830311727 -0.7669347897393095)"><path d="M0.7 0.03 C17.71 -0.33, 84.87 -1.31, 101.78 -1.56 M-0.4 -1 C16.46 -1.29, 83.71 -0.56, 100.68 -0.48" stroke="#1e1e1e" stroke-width="1" fill="none"></path></g></g><mask></mask><g stroke-linecap="round"><g transform="translate(23.919268778748688 127.50441353858093) rotate(0 50.830737782671946 0.24792588507762048)"><path d="M-0.93 -0.57 C16.05 -0.68, 85.28 -1.32, 102.59 -1.26 M0.78 1.75 C17.6 1.84, 85 0.64, 101.98 -0.02" stroke="#1e1e1e" stroke-width="1" fill="none"></path></g></g><mask></mask><g stroke-linecap="round"><g transform="translate(23.969585770148285 140.8119336324188) rotate(0 20.50442905804445 0.17799726629368706)"><path d="M0.14 -0.55 C7.26 -0.37, 35.18 0.38, 42.26 0.29 M-1.25 1.78 C5.75 1.69, 34.08 -1.11, 41.29 -1.42" stroke="#1e1e1e" stroke-width="1" fill="none"></path></g></g><mask></mask><g stroke-linecap="round"><g transform="translate(77.45654762790832 140.6954100733882) rotate(0 25.19889847376055 0.38327745181322825)"><path d="M0.76 -0.59 C8.72 -0.61, 40.36 -1.14, 48.57 -0.91 M-0.3 1.72 C7.94 1.89, 42.4 0.64, 50.69 0.17" stroke="#1e1e1e" stroke-width="1" fill="none"></path></g></g><mask></mask><g stroke-linecap="round"><g transform="translate(24.44627305709173 153.29584402492668) rotate(0 52.019724468502716 -0.696705625429729)"><path d="M0.18 0.64 C17.58 0.41, 87.97 -1.51, 105.22 -2.03 M-1.18 -0.07 C16.04 -0.09, 86.68 -0.51, 104.56 -0.77" stroke="#1e1e1e" stroke-width="1" fill="none"></path></g></g><mask></mask><g stroke-linecap="round"><g transform="translate(59.954179408968116 161.98214569811842) rotate(0 33.100041546712276 0.16201005890161468)"><path d="M-0.71 -0.15 C10.47 0.18, 55.61 1.37, 66.91 1.6 M1.12 -1.28 C12.11 -1.26, 54.85 -0.84, 65.68 -0.18" stroke="#1e1e1e" stroke-width="1" fill="none"></path></g></g><mask></mask><g stroke-linecap="round"><g transform="translate(60.32758445040713 171.6588976230704) rotate(0 33.120783365779204 -0.6692340668835186)"><path d="M0.09 -0.42 C11.17 -0.78, 56.27 -0.99, 67.56 -1.05 M-1.32 -1.68 C9.51 -1.35, 55.22 -0.02, 66.66 0.35" stroke="#1e1e1e" stroke-width="1" fill="none"></path></g></g><mask></mask><g stroke-linecap="round"><g transform="translate(41.71029763256024 183.60785894911947) rotate(0 43.77726618923117 -1.1973590231171727)"><path d="M0.57 -0.04 C14.81 -0.15, 71.6 -0.32, 85.74 -0.74 M-0.59 -1.11 C14.03 -1.53, 73.4 -2.25, 88.15 -2.36" stroke="#1e1e1e" stroke-width="1" fill="none"></path></g></g><mask></mask><g stroke-linecap="round"><g transform="translate(62.427656775663536 218.3477691164759) rotate(0 10.3083782136232 -1.3467979158734806)"><path d="M-0.9 -0.47 C2.74 -0.69, 17.85 -2.22, 21.52 -2.23 M0.83 -1.76 C4.34 -1.74, 17.32 -0.9, 20.52 -0.98" stroke="#1e1e1e" stroke-width="1" fill="none"></path></g></g><mask></mask><g stroke-linecap="round"><g transform="translate(89.14068268343328 216.83296284907783) rotate(0 19.174140012622786 -0.020993069960809407)"><path d="M0.41 -1.07 C7.01 -1.08, 32.75 -0.84, 39.18 -0.89 M-0.84 0.98 C5.66 1.19, 31.82 0.59, 38.34 0.31" stroke="#1e1e1e" stroke-width="1" fill="none"></path></g></g><mask></mask><g stroke-linecap="round"><g transform="translate(25.788942248649107 207.3151066864403) rotate(0 37.63309317645127 0.4517542207457268)"><path d="M-0.04 -0.54 C12.72 -0.67, 64.27 -1.02, 76.79 -0.82 M-1.52 1.78 C11.15 1.77, 63.2 0.05, 76.38 0.09" stroke="#1e1e1e" stroke-width="1" fill="none"></path></g></g><mask></mask><g stroke-linecap="round" transform="translate(366.49609375 60.98828125) rotate(0 6.607633272890496 5.544575553908089)"><path d="M5.69 -0.74 C6.74 -0.83, 8.59 0.02, 9.8 0.99 C11.01 1.96, 12.5 3.78, 12.94 5.07 C13.39 6.36, 13.26 7.79, 12.46 8.74 C11.65 9.69, 9.34 10.29, 8.12 10.76 C6.9 11.24, 6.23 12, 5.16 11.58 C4.09 11.16, 2.41 9.2, 1.69 8.22 C0.98 7.23, 0.78 6.92, 0.88 5.66 C0.97 4.4, 1.12 1.56, 2.29 0.68 C3.45 -0.2, 6.71 0.37, 7.86 0.39 C9.02 0.42, 9.25 0.75, 9.23 0.84 M9.02 -0.15 C10.07 0.35, 10.46 2.22, 11.12 3.27 C11.78 4.33, 12.87 5.06, 12.96 6.17 C13.05 7.28, 12.54 9.24, 11.65 9.93 C10.77 10.61, 8.77 9.96, 7.63 10.26 C6.49 10.55, 6.12 12.19, 4.8 11.69 C3.49 11.19, 0.67 8.53, -0.26 7.25 C-1.19 5.97, -1.43 4.93, -0.8 4.02 C-0.17 3.11, 2.21 2.48, 3.52 1.79 C4.83 1.11, 6.16 0.03, 7.09 -0.07 C8.01 -0.16, 8.91 1.31, 9.07 1.22" stroke="#228be6" stroke-width="1" fill="none"></path></g><g stroke-linecap="round" transform="translate(412.32160607900516 62.67544090550143) rotate(0 7.356800823407468 6.001923338429947)"><path d="M7.61 -0.55 C9.3 -0.64, 12.27 0.8, 13.34 1.76 C14.41 2.73, 14.13 3.97, 14.03 5.26 C13.94 6.55, 13.56 8.5, 12.75 9.51 C11.93 10.51, 10.71 10.9, 9.13 11.28 C7.55 11.65, 4.81 12.24, 3.29 11.76 C1.78 11.28, 0.6 9.5, 0.04 8.41 C-0.52 7.31, -0.67 6.37, -0.05 5.19 C0.57 4, 2.1 2.02, 3.74 1.29 C5.39 0.55, 8.62 0.82, 9.84 0.79 C11.06 0.77, 11.04 0.98, 11.05 1.13 M8.82 0.08 C10.18 -0.04, 10.02 -0.46, 11.24 0.55 C12.46 1.55, 16.01 4.66, 16.15 6.13 C16.29 7.6, 13.13 8.41, 12.08 9.37 C11.03 10.33, 10.99 11.7, 9.84 11.91 C8.7 12.12, 6.93 11.13, 5.24 10.64 C3.55 10.15, 0.37 9.91, -0.29 8.96 C-0.95 8.01, 0.68 6.19, 1.26 4.94 C1.84 3.69, 2.24 2.36, 3.18 1.45 C4.12 0.54, 6.34 -0.37, 6.91 -0.5 C7.47 -0.63, 6.34 0.41, 6.57 0.68" stroke="#228be6" stroke-width="1" fill="none"></path></g><g stroke-linecap="round" transform="translate(458.47326991118143 63.82310183395299) rotate(0 7.667012591461173 5.901380393843368)"><path d="M9.56 0.08 C11.1 0.47, 12.08 1.61, 12.94 2.66 C13.8 3.71, 14.61 5.18, 14.71 6.4 C14.82 7.61, 14.49 9.02, 13.57 9.95 C12.65 10.88, 10.79 11.91, 9.19 11.96 C7.6 12, 5.31 10.97, 3.99 10.23 C2.66 9.5, 1.88 8.62, 1.26 7.55 C0.63 6.49, -0.3 4.96, 0.24 3.82 C0.78 2.68, 2.99 1.45, 4.51 0.73 C6.03 0, 8.19 -0.55, 9.35 -0.53 C10.5 -0.5, 11.31 0.53, 11.43 0.88 M5.66 -1.33 C7.45 -1.36, 11.7 -0.26, 13.22 0.49 C14.74 1.24, 14.71 1.9, 14.77 3.19 C14.83 4.47, 14 6.84, 13.58 8.23 C13.17 9.62, 13.59 11.14, 12.26 11.52 C10.93 11.9, 7.42 10.85, 5.6 10.53 C3.77 10.2, 2.26 10.47, 1.3 9.59 C0.34 8.71, -0.45 6.44, -0.16 5.24 C0.14 4.05, 1.88 3.49, 3.05 2.43 C4.21 1.36, 6.3 -0.73, 6.83 -1.15 C7.35 -1.56, 6.25 -0.56, 6.2 -0.06" stroke="#228be6" stroke-width="1" fill="none"></path></g><g stroke-linecap="round" transform="translate(502.4080844285709 60.99318578388227) rotate(0 6.573301535714563 6.317039640365891)"><path d="M7.92 0.25 C9.22 0.26, 10.1 0.63, 11.12 1.48 C12.13 2.33, 13.76 3.85, 14.03 5.35 C14.3 6.86, 13.67 9.28, 12.72 10.5 C11.78 11.72, 9.81 12.27, 8.36 12.67 C6.91 13.07, 5.4 13.61, 4.03 12.91 C2.65 12.22, 0.71 9.96, 0.11 8.48 C-0.48 7, -0.17 5.22, 0.45 4.01 C1.06 2.8, 2.45 1.95, 3.81 1.22 C5.17 0.49, 7.46 -0.42, 8.61 -0.37 C9.76 -0.32, 10.77 1.18, 10.71 1.52 M7 -1.22 C8.58 -1.25, 11.5 0.37, 12.41 1.75 C13.31 3.13, 12.39 5.42, 12.43 7.07 C12.47 8.72, 13.22 10.55, 12.66 11.64 C12.1 12.74, 10.65 13.57, 9.06 13.65 C7.47 13.73, 4.62 13.11, 3.13 12.12 C1.63 11.12, 0.71 9.02, 0.08 7.69 C-0.54 6.36, -0.96 5.1, -0.62 4.15 C-0.28 3.19, 0.59 2.81, 2.12 1.96 C3.65 1.12, 7.61 -0.66, 8.55 -0.94 C9.49 -1.21, 7.81 0.23, 7.77 0.33" stroke="#228be6" stroke-width="1" fill="none"></path></g><g stroke-linecap="round" transform="translate(398.0935532865351 110.3009171693003) rotate(0 8.370813203567138 7.052719722706627)"><path d="M4.36 0.77 C6.01 0.15, 9.25 0.51, 11.17 0.95 C13.09 1.4, 14.95 2.49, 15.89 3.43 C16.83 4.38, 17.01 5.23, 16.82 6.62 C16.64 8.01, 16.16 10.65, 14.79 11.79 C13.41 12.93, 10.61 13.31, 8.6 13.45 C6.59 13.6, 4.28 13.43, 2.74 12.65 C1.19 11.87, -0.4 10.28, -0.65 8.77 C-0.9 7.26, 0.34 5.12, 1.21 3.61 C2.09 2.1, 3.7 0.19, 4.58 -0.28 C5.46 -0.74, 6.37 0.53, 6.49 0.81 M7.8 -1.13 C9.88 -1.2, 12.5 0.32, 13.72 1.49 C14.95 2.67, 14.83 4.42, 15.16 5.94 C15.48 7.45, 15.96 9.3, 15.69 10.59 C15.41 11.88, 14.81 13.26, 13.5 13.67 C12.2 14.07, 10.07 13.6, 7.88 13 C5.68 12.4, 1.66 11.26, 0.34 10.07 C-0.98 8.89, -0.53 6.95, -0.02 5.89 C0.48 4.83, 2.25 4.56, 3.36 3.69 C4.48 2.82, 5.81 1.05, 6.67 0.68 C7.54 0.3, 8.57 1.35, 8.58 1.44" stroke="#228be6" stroke-width="1" fill="none"></path></g><g stroke-linecap="round" transform="translate(454.27498890795687 110.17094702142009) rotate(0 8.319315597803268 7.3678360246426)"><path d="M4.57 0.81 C5.98 0.3, 8.72 0.71, 10.35 1.13 C11.98 1.55, 13.31 2.23, 14.37 3.35 C15.43 4.47, 16.63 6.43, 16.72 7.84 C16.81 9.25, 16.13 10.84, 14.89 11.81 C13.66 12.79, 11.29 13.25, 9.31 13.7 C7.34 14.16, 4.62 15.19, 3.04 14.54 C1.47 13.89, 0.17 11.3, -0.16 9.81 C-0.48 8.32, 0.24 7.11, 1.1 5.59 C1.97 4.06, 4.06 1.64, 5.02 0.67 C5.98 -0.31, 6.81 -0.42, 6.87 -0.25 M11.72 0.68 C13.42 1.19, 15.13 1.85, 15.93 3.1 C16.73 4.35, 16.93 6.67, 16.5 8.2 C16.08 9.73, 14.92 11.37, 13.36 12.26 C11.81 13.16, 9.02 13.6, 7.17 13.58 C5.32 13.56, 3.21 13.2, 2.25 12.14 C1.29 11.09, 1.39 8.46, 1.39 7.25 C1.38 6.04, 1.68 5.76, 2.21 4.86 C2.74 3.97, 3.05 2.4, 4.56 1.89 C6.06 1.39, 10.07 2.28, 11.23 1.84 C12.39 1.39, 11.49 -0.69, 11.53 -0.79" stroke="#228be6" stroke-width="1" fill="none"></path></g><g stroke-linecap="round" transform="translate(377.45282244299483 163.48323032171294) rotate(0 8.163596647041174 7.5542083121689245)"><path d="M10.35 -0.73 C12.09 -0.63, 14.01 1.42, 15.16 2.84 C16.31 4.26, 17.52 6.02, 17.24 7.78 C16.96 9.54, 14.91 12.15, 13.46 13.39 C12.02 14.63, 10.33 15.05, 8.58 15.23 C6.83 15.4, 4.28 15.36, 2.96 14.44 C1.64 13.52, 1.09 11.23, 0.65 9.71 C0.22 8.19, -0.17 6.67, 0.36 5.31 C0.89 3.96, 2.15 2.43, 3.82 1.59 C5.49 0.74, 9.17 0.51, 10.39 0.24 C11.6 -0.02, 11.21 -0.09, 11.09 0.02 M9.2 -0.11 C10.63 -0.14, 11.78 0.12, 12.93 1.09 C14.08 2.07, 15.7 4.07, 16.11 5.75 C16.52 7.44, 16.39 9.93, 15.4 11.19 C14.4 12.45, 11.5 12.85, 10.14 13.31 C8.79 13.78, 8.99 14.28, 7.29 13.97 C5.59 13.67, 0.96 12.66, -0.04 11.49 C-1.03 10.31, 0.97 8.47, 1.3 6.9 C1.63 5.33, 0.86 3.42, 1.96 2.07 C3.06 0.72, 6.71 -1.06, 7.89 -1.21 C9.06 -1.37, 9.2 0.61, 9.01 1.15" stroke="#228be6" stroke-width="1" fill="none"></path></g><g stroke-linecap="round" transform="translate(430.9490257638729 162.40913740149546) rotate(0 7.236639743291846 7.110347995823332)"><path d="M7.14 -0.78 C8.79 -0.73, 10.7 1.05, 12.03 1.95 C13.37 2.85, 14.79 3.44, 15.15 4.64 C15.5 5.85, 15.12 7.59, 14.17 9.19 C13.22 10.79, 10.81 13.33, 9.46 14.25 C8.1 15.17, 7.28 15.13, 6.06 14.7 C4.84 14.27, 3.15 12.95, 2.13 11.67 C1.12 10.39, -0.05 8.63, -0.01 7.02 C0.03 5.42, 1.17 3.09, 2.38 2.04 C3.59 0.99, 6.33 1.21, 7.27 0.74 C8.21 0.28, 7.92 -0.68, 8 -0.75 M6.76 -1.08 C8.3 -1.26, 10.77 0.63, 11.88 2.11 C12.99 3.58, 13.19 6.09, 13.43 7.77 C13.66 9.45, 14.12 10.98, 13.28 12.18 C12.45 13.39, 9.87 14.61, 8.39 14.99 C6.92 15.37, 5.76 15.32, 4.45 14.46 C3.14 13.6, 1.43 11.5, 0.51 9.81 C-0.4 8.12, -1.33 5.91, -1.05 4.31 C-0.77 2.72, 0.57 0.79, 2.21 0.26 C3.84 -0.28, 7.98 0.92, 8.75 1.11 C9.52 1.3, 6.9 1.6, 6.8 1.4" stroke="#228be6" stroke-width="1" fill="none"></path></g><g stroke-linecap="round" transform="translate(476.8971514399349 162.98051559878013) rotate(0 8.824482587677267 7.004900517354486)"><path d="M8.92 -0.63 C10.76 -0.61, 14.58 0.34, 16.14 1.46 C17.7 2.58, 18.46 4.37, 18.25 6.11 C18.05 7.84, 16.09 10.71, 14.9 11.87 C13.7 13.03, 12.73 12.86, 11.07 13.09 C9.41 13.31, 6.8 13.93, 4.91 13.21 C3.03 12.49, 0.41 10.05, -0.25 8.76 C-0.92 7.47, 0.2 6.78, 0.92 5.5 C1.64 4.21, 2.59 1.92, 4.06 1.04 C5.53 0.16, 8.72 0.16, 9.75 0.21 C10.79 0.26, 10.09 1.28, 10.29 1.33 M12.56 1.58 C14.5 1.95, 16.65 1.18, 17.46 2.41 C18.28 3.65, 17.97 7.45, 17.46 8.99 C16.96 10.53, 15.74 10.84, 14.44 11.66 C13.14 12.48, 11.7 13.76, 9.67 13.9 C7.64 14.04, 3.81 13.36, 2.28 12.48 C0.76 11.59, 0.65 9.87, 0.51 8.59 C0.37 7.31, 0.56 6.26, 1.46 4.8 C2.37 3.34, 4.25 0.67, 5.93 -0.15 C7.62 -0.97, 10.47 -0.42, 11.57 -0.1 C12.67 0.22, 12.51 1.74, 12.52 1.76" stroke="#228be6" stroke-width="1" fill="none"></path></g><g stroke-linecap="round"><g transform="translate(375.81961266019846 72.10931182805098) rotate(0 14.84126618493923 20.18324340064507)"><path d="M-0.56 -0.66 C4.65 6.07, 25.16 32.91, 30.25 39.42 M1.34 1.6 C6.45 8.64, 23.88 34.75, 29.07 41.03" stroke="#1e1e1e" stroke-width="1" fill="none"></path></g></g><mask></mask><g stroke-linecap="round"><g transform="translate(419.57541169088495 75.87354158269449) rotate(0 -5.793809145363866 16.91710249747436)"><path d="M0.29 0.3 C-1.75 5.95, -9.13 28.75, -11.4 34.42 M-1.02 -0.59 C-3.2 4.7, -10.21 27.31, -11.88 32.8" stroke="#1e1e1e" stroke-width="1" fill="none"></path></g></g><mask></mask><g stroke-linecap="round"><g transform="translate(466.32788092363944 75.77054637116674) rotate(0 -27.717225736662556 16.1315486729749)"><path d="M0.76 0.31 C-8.3 5.94, -46.01 27.55, -55.32 32.84 M-0.3 -0.57 C-9.43 4.75, -46.96 25.26, -56.19 30.86" stroke="#1e1e1e" stroke-width="1" fill="none"></path></g></g><mask></mask><g stroke-linecap="round"><g transform="translate(509.22783879186954 75.71904876540293) rotate(0 -49.04901333073332 16.79588547383429)"><path d="M-0.89 -0.69 C-17.27 4.85, -81.77 27.1, -98 32.73 M0.84 1.56 C-15.72 7.36, -82.26 29.39, -98.94 34.28" stroke="#1e1e1e" stroke-width="1" fill="none"></path></g></g><mask></mask><g stroke-linecap="round"><g transform="translate(376.5724586111271 70.89789195912988) rotate(0 41.85719215850361 21.0162110121112)"><path d="M-0.67 0.6 C13.23 7.36, 70.31 34.05, 84.38 41.17 M1.18 -0.13 C14.85 6.7, 69.95 35.2, 83.55 42.16" stroke="#1e1e1e" stroke-width="1" fill="none"></path></g></g><mask></mask><g stroke-linecap="round"><g transform="translate(421.60588871814537 75.37327912670276) rotate(0 20.524476233155895 18.583025461495367)"><path d="M-0.47 0.49 C5.88 6.83, 32.39 31.49, 39.17 37.46 M1.49 -0.3 C8.14 5.79, 35.16 29.62, 41.52 35.94" stroke="#1e1e1e" stroke-width="1" fill="none"></path></g></g><mask></mask><g stroke-linecap="round"><g transform="translate(466.3646649277565 75.35856552505595) rotate(0 -2.7917999855317817 16.27199815061161)"><path d="M-0.21 0.41 C-1.29 5.63, -4.58 26.53, -5.37 31.81 M-1.79 -0.42 C-2.59 4.89, -3.12 27.36, -3.23 32.96" stroke="#1e1e1e" stroke-width="1" fill="none"></path></g></g><mask></mask><g stroke-linecap="round"><g transform="translate(507.9502077155378 73.92398936449149) rotate(0 -20.983801964526094 17.829018610054447)"><path d="M-1.05 -1.11 C-7.95 4.85, -35.26 30.62, -42.06 36.77 M0.61 0.92 C-6.33 7.04, -35.46 28.93, -42.57 34.92" stroke="#1e1e1e" stroke-width="1" fill="none"></path></g></g><mask></mask><g stroke-linecap="round"><g transform="translate(407.4881879380265 123.61182212578558) rotate(0 -9.937045399524663 17.976890822426242)"><path d="M0.11 -0.22 C-3.24 5.78, -16.08 29.96, -19.46 36.24 M-1.29 -1.39 C-4.78 4.73, -16.71 31.21, -19.98 37.34" stroke="#1e1e1e" stroke-width="1" fill="none"></path></g></g><mask></mask><g stroke-linecap="round"><g transform="translate(459.83673033045295 125.83112370751348) rotate(0 -35.71090990711281 17.932963007312992)"><path d="M0.3 0.42 C-11.41 6.44, -58.97 30.61, -70.88 36.26 M-1 -0.4 C-12.8 5.29, -59.89 28.8, -71.72 34.74" stroke="#1e1e1e" stroke-width="1" fill="none"></path></g></g><mask></mask><g stroke-linecap="round"><g transform="translate(408.9006936961207 123.89138055707508) rotate(0 13.749837083202465 18.794463542117853)"><path d="M-0.5 -0.66 C4.1 5.68, 23.36 30.71, 28 37.26 M1.44 1.6 C5.88 8.13, 23.09 31.84, 27.25 38.25" stroke="#1e1e1e" stroke-width="1" fill="none"></path></g></g><mask></mask><g stroke-linecap="round"><g transform="translate(409.0748046489414 123.12136873755838) rotate(0 38.08103895602579 19.91285954222488)"><path d="M0.23 0.23 C13.21 6.67, 64.6 32.66, 77.27 39.16 M-1.11 -0.69 C11.86 5.88, 64.14 33.66, 76.92 40.51" stroke="#1e1e1e" stroke-width="1" fill="none"></path></g></g><mask></mask><g stroke-linecap="round"><g transform="translate(461.38901530419184 125.77962610174961) rotate(0 -13.902039050432506 17.657124603094275)"><path d="M-0.16 -0.33 C-4.54 5.63, -22.38 29.47, -26.66 35.32 M-1.71 -1.55 C-6.21 4.66, -23.57 30.63, -27.64 36.86" stroke="#1e1e1e" stroke-width="1" fill="none"></path></g></g><mask></mask><g stroke-linecap="round"><g transform="translate(461.9849161708879 125.15429803175999) rotate(0 11.065171192397372 18.66519955591761)"><path d="M0.68 -0.13 C4.62 6.28, 18.9 32.11, 22.55 38.58 M-0.42 -1.25 C3.49 4.77, 18.11 30.3, 21.85 36.59" stroke="#1e1e1e" stroke-width="1" fill="none"></path></g></g><mask></mask><g stroke-linecap="round" transform="translate(408.39797897318783 217.4232939589366) rotate(0 7.766329402577185 8.006651562808457)"><path d="M6.64 -0.08 C8.13 -0.65, 10.21 -0.81, 11.49 0.08 C12.76 0.96, 13.84 3.59, 14.32 5.22 C14.79 6.85, 14.71 8.15, 14.32 9.85 C13.92 11.56, 13.15 14.43, 11.94 15.46 C10.73 16.49, 8.82 16.56, 7.08 16.06 C5.34 15.56, 2.7 13.67, 1.49 12.48 C0.29 11.29, -0.21 10.39, -0.16 8.93 C-0.12 7.48, 0.61 5.15, 1.76 3.75 C2.92 2.34, 5.51 1.12, 6.76 0.5 C8.01 -0.12, 8.98 0, 9.25 0.02 M5.07 0.32 C6.56 -0.35, 8.76 0.32, 10.48 1.18 C12.19 2.05, 14.56 4.14, 15.36 5.52 C16.15 6.89, 15.59 7.76, 15.26 9.44 C14.92 11.12, 14.63 14.4, 13.36 15.58 C12.09 16.76, 9.41 17.02, 7.64 16.51 C5.87 15.99, 4.2 13.73, 2.75 12.48 C1.3 11.23, -0.68 10.56, -1.08 9 C-1.47 7.44, -0.6 4.52, 0.4 3.11 C1.4 1.69, 4.12 0.85, 4.94 0.5 C5.77 0.15, 5.05 0.83, 5.35 0.99" stroke="#228be6" stroke-width="1" fill="none"></path></g><g stroke-linecap="round" transform="translate(452.72515620115905 216.82003629141718) rotate(0 8.651597768327179 8.13784784415924)"><path d="M6.37 0.83 C8.02 0.31, 10.16 0.74, 11.92 1.34 C13.68 1.95, 16.07 2.99, 16.94 4.45 C17.81 5.91, 17.45 8.6, 17.14 10.12 C16.83 11.64, 16.52 12.46, 15.08 13.58 C13.63 14.7, 10.53 16.58, 8.48 16.82 C6.44 17.06, 4.2 16.27, 2.81 15.01 C1.42 13.75, 0.42 11.18, 0.15 9.27 C-0.13 7.35, -0.33 5.17, 1.15 3.52 C2.62 1.88, 7.26 -0.09, 9.01 -0.6 C10.75 -1.1, 11.72 0.27, 11.61 0.49 M9.91 0.55 C11.61 0.85, 13.14 3, 14.36 4.05 C15.58 5.11, 17.21 5.3, 17.22 6.88 C17.23 8.45, 15.52 11.83, 14.43 13.5 C13.34 15.17, 12.58 16.65, 10.69 16.89 C8.8 17.13, 4.61 16.12, 3.07 14.93 C1.53 13.75, 2.09 11.45, 1.44 9.77 C0.8 8.09, -1.05 6.52, -0.82 4.86 C-0.58 3.21, 1.02 0.4, 2.85 -0.16 C4.67 -0.73, 9.11 1.28, 10.14 1.47 C11.18 1.67, 9.29 1.16, 9.04 1" stroke="#228be6" stroke-width="1" fill="none"></path></g><g stroke-linecap="round"><g transform="translate(387.458071562829 177.7358057835944) rotate(0 13.000834070302801 19.779761850253237)"><path d="M-0.19 -0.6 C4.38 5.96, 23.2 32.07, 27.74 38.59 M-1.74 1.69 C2.7 8.53, 22.47 33.81, 27.14 40.16" stroke="#1e1e1e" stroke-width="1" fill="none"></path></g></g><mask></mask><g stroke-linecap="round"><g transform="translate(438.07040896093133 178.1232639602938) rotate(0 -10.798624711907792 18.62584512648013)"><path d="M-0.17 0.54 C-3.74 6.59, -17.27 30.15, -20.97 36.34 M-1.71 -0.23 C-5.4 5.96, -17.82 31.5, -21.43 37.48" stroke="#1e1e1e" stroke-width="1" fill="none"></path></g></g><mask></mask><g stroke-linecap="round"><g transform="translate(438.389203663279 177.17423665407426) rotate(0 10.877216832455588 19.103255209790746)"><path d="M0.98 -0.42 C4.77 6.09, 18.22 31.77, 21.71 38.42 M0.04 -1.69 C3.79 5.08, 17.43 33.35, 21.02 39.9" stroke="#1e1e1e" stroke-width="1" fill="none"></path></g></g><mask></mask><g stroke-linecap="round"><g transform="translate(486.9097573605925 177.27477959866087) rotate(0 -12.050735225930111 18.941651187524826)"><path d="M0.39 0.1 C-3.45 6.54, -19.76 32.61, -24 38.78 M-0.86 -0.89 C-4.71 5.22, -20.32 30.73, -24.49 37.23" stroke="#1e1e1e" stroke-width="1" fill="none"></path></g></g><mask></mask><g stroke-linecap="round"><g transform="translate(485.72040789414154 178.16495249829313) rotate(0 -35.59917136875765 20.291989970439204)"><path d="M0.25 1.07 C-11.8 7.72, -59.54 33.76, -71.45 40 M-1.08 0.58 C-12.82 6.89, -57.29 31.82, -69.16 38.29" stroke="#1e1e1e" stroke-width="1" fill="none"></path></g></g><mask></mask><g stroke-linecap="round"><g transform="translate(388.10301776834774 179.85211215379456) rotate(0 36.31181230559969 18.536477163814965)"><path d="M-0.13 0.58 C12.15 6.52, 61.95 30.21, 74.29 36.19 M-1.66 -0.16 C10.44 5.86, 61.06 30.98, 73.51 37.23" stroke="#1e1e1e" stroke-width="1" fill="none"></path></g></g><mask></mask><g stroke-linecap="round" transform="translate(600.10546875 121.83203125) rotate(0 144.025390625 20.533053781383842)"><path d="M10.27 0 M10.27 0 C104.64 0.64, 201.73 0.05, 277.78 0 M10.27 0 C82.97 -2.06, 156.45 -1.97, 277.78 0 M277.78 0 C285.5 -1.13, 288.07 3.06, 288.05 10.27 M277.78 0 C286.76 -0.36, 287.17 4.74, 288.05 10.27 M288.05 10.27 C289.74 15.65, 288.74 23.19, 288.05 30.8 M288.05 10.27 C287.86 16.25, 287.91 21.88, 288.05 30.8 M288.05 30.8 C287.17 36.02, 286.61 39.82, 277.78 41.07 M288.05 30.8 C288.48 35.86, 282.97 38.95, 277.78 41.07 M277.78 41.07 C199.6 40.8, 123.34 39.03, 10.27 41.07 M277.78 41.07 C201.55 39.49, 125.84 40, 10.27 41.07 M10.27 41.07 C2.82 40.54, 1.44 36.55, 0 30.8 M10.27 41.07 C2.36 40.07, 1.3 39.09, 0 30.8 M0 30.8 C0.58 23.99, 0.26 16, 0 10.27 M0 30.8 C-0.13 23.04, 0.03 15.87, 0 10.27 M0 10.27 C0.48 1.97, 3.25 -1.94, 10.27 0 M0 10.27 C1.26 2.53, 4.43 -0.77, 10.27 0" stroke="#1e1e1e" stroke-width="1" fill="none"></path></g><g transform="translate(609.9937295520308 133.03972301829776) rotate(0 133.7472414865756 10.226579315241764)"><text x="133.74724148657555" y="0" font-family="Virgil, Segoe UI Emoji" font-size="16.3625269043868px" fill="#1e1e1e" text-anchor="middle" style="white-space: pre;" direction="ltr" dominant-baseline="text-before-edge">12  7  64  5F  27  C0  82  4A</text></g><g stroke-linecap="round"><g transform="translate(634.5051249216444 122.79716467287597) rotate(0 0.7184526485032166 19.52792110016219)"><path d="M0.59 -0.01 C0.89 6.47, 0.7 32.53, 0.84 39.07" stroke="#1e1e1e" stroke-width="1.5" fill="none" stroke-dasharray="8 9"></path></g></g><mask></mask><g stroke-linecap="round"><g transform="translate(661.9123574864923 122.36573085801416) rotate(0 0.6144017427476456 20.38417889675395)"><path d="M0.53 0.92 C0.62 7.43, 0.8 33.69, 0.61 39.85" stroke="#1e1e1e" stroke-width="1.5" fill="none" stroke-dasharray="8 9"></path></g></g><mask></mask><g stroke-linecap="round"><g transform="translate(695.5386285974216 122.7620108064798) rotate(0 -0.4910145440311453 19.881282320300528)"><path d="M-0.38 0.13 C-0.58 6.53, -0.42 32.88, -0.6 39.64" stroke="#1e1e1e" stroke-width="1.5" fill="none" stroke-dasharray="8 9"></path></g></g><mask></mask><g stroke-linecap="round"><g transform="translate(731.660824222477 122.7588150004438) rotate(0 0.4575807465325852 18.81338735940045)"><path d="M0.36 -0.23 C0.54 5.9, 0.59 31.5, 0.54 37.86" stroke="#1e1e1e" stroke-width="1.5" fill="none" stroke-dasharray="8 9"></path></g></g><mask></mask><g stroke-linecap="round"><g transform="translate(770.5186298143597 122.37531827612224) rotate(0 0.6819984926369216 18.199789558494786)"><path d="M0.81 -0.27 C0.73 6.01, 0.55 30.45, 0.55 36.67" stroke="#1e1e1e" stroke-width="1.5" fill="none" stroke-dasharray="8 9"></path></g></g><mask></mask><g stroke-linecap="round"><g transform="translate(806.7750492929279 122.25707345278971) rotate(0 -0.5798111979736404 20.348302884280173)"><path d="M-0.96 0.12 C-1.01 6.69, -0.26 33.92, -0.2 40.58" stroke="#1e1e1e" stroke-width="1.5" fill="none" stroke-dasharray="8 9"></path></g></g><mask></mask><g stroke-linecap="round"><g transform="translate(848.2278493860531 121.8767725345042) rotate(0 0.48712184594171504 21.539045123671826)"><path d="M0.71 0.41 C0.88 7.59, 0.43 35.87, 0.22 42.67" stroke="#1e1e1e" stroke-width="1.5" fill="none" stroke-dasharray="8 9"></path></g></g><mask></mask><g stroke-linecap="round"><g transform="translate(164.9140625 147.9296875) rotate(0 95.30594649873672 -0.649918853864051)"><path d="M-1.09 0.16 C30.74 -0.15, 159.59 -1.03, 191.7 -1.46 M0.54 -0.81 C32.21 -0.94, 159.34 0.26, 191.09 0.14" stroke="#1e1e1e" stroke-width="1" fill="none"></path></g><g transform="translate(164.9140625 147.9296875) rotate(0 95.30594649873672 -0.649918853864051)"><path d="M163.12 11.37 C173.18 7.71, 181.73 4.31, 190.82 -0.9 M163.46 9.51 C172.55 7.44, 181.58 3.16, 191.5 0.4" stroke="#1e1e1e" stroke-width="1" fill="none"></path></g><g transform="translate(164.9140625 147.9296875) rotate(0 95.30594649873672 -0.649918853864051)"><path d="M163.2 -9.15 C173.29 -5.42, 181.82 -1.43, 190.82 -0.9 M163.53 -11.01 C172.57 -6.41, 181.57 -4.02, 191.5 0.4" stroke="#1e1e1e" stroke-width="1" fill="none"></path></g></g><mask></mask><g stroke-linecap="round"><g transform="translate(505.95703125 141.15234375) rotate(0 32.59053428405895 0.9910856208577741)"><path d="M0.16 0.74 C11.2 0.86, 55.41 0.84, 66.4 0.82 M-1.22 0.08 C9.75 0.32, 54.89 1.68, 66.05 1.9" stroke="#1e1e1e" stroke-width="1" fill="none"></path></g><g transform="translate(505.95703125 141.15234375) rotate(0 32.59053428405895 0.9910856208577741)"><path d="M38.84 13.35 C45.09 9.81, 53.72 5.68, 68.01 0.01 M38.24 12.25 C46.96 7.75, 58.36 3.75, 65.16 1.8" stroke="#1e1e1e" stroke-width="1" fill="none"></path></g><g transform="translate(505.95703125 141.15234375) rotate(0 32.59053428405895 0.9910856208577741)"><path d="M39.36 -7.17 C45.47 -4.26, 53.93 -1.94, 68.01 0.01 M38.77 -8.26 C47.22 -5.37, 58.42 -1.98, 65.16 1.8" stroke="#1e1e1e" stroke-width="1" fill="none"></path></g></g><mask></mask><g stroke-linecap="round"><g transform="translate(372.71875 363.09375) rotate(0 0.6802324112504721 63.36395784653723)"><path d="M-0.45 -0.72 C-0.29 20.7, 1.48 106.24, 1.81 127.45 M1.52 1.51 C1.51 22.68, 1.38 104.58, 1.31 125.61" stroke="#1e1e1e" stroke-width="1" fill="none"></path></g></g><mask></mask><g stroke-linecap="round"><g transform="translate(504.0625 355.55078125) rotate(0 0.3052228116151241 68.06473646008408)"><path d="M-0.63 -1.14 C-0.59 21.45, 1.05 112.87, 1.09 135.74 M1.24 0.88 C1.12 23.65, 1.06 114.49, 0.62 137.27" stroke="#1e1e1e" stroke-width="1" fill="none"></path></g></g><mask></mask><g stroke-linecap="round" transform="translate(376.71875 305.67578125) rotate(0 63.267578125 44.41015625)"><path d="M38.67 3.95 C47.29 0.36, 59.81 -0.81, 70.15 0.03 C80.5 0.87, 92.04 4.44, 100.74 9 C109.44 13.56, 118.1 20.67, 122.36 27.39 C126.62 34.1, 127.73 42.01, 126.32 49.29 C124.9 56.57, 120.13 65.06, 113.88 71.05 C107.63 77.03, 98.52 82.14, 88.8 85.19 C79.09 88.24, 66.09 90.28, 55.59 89.35 C45.1 88.41, 34.27 84.14, 25.85 79.58 C17.42 75.02, 9.26 68.84, 5.05 61.98 C0.84 55.12, -0.81 45.66, 0.58 38.42 C1.97 31.19, 5.43 24.95, 13.38 18.58 C21.34 12.21, 40.42 3, 48.31 0.21 C56.19 -2.58, 60.26 1.03, 60.7 1.84 M42.85 1.32 C51.79 -1.7, 63.66 -2.27, 73.96 -0.61 C84.26 1.04, 96.72 6.33, 104.66 11.25 C112.59 16.17, 118.06 22.22, 121.57 28.9 C125.08 35.58, 127.33 43.79, 125.72 51.34 C124.1 58.89, 118.79 68.24, 111.89 74.21 C105 80.18, 94.36 84.93, 84.35 87.14 C74.34 89.36, 62.03 89.18, 51.83 87.5 C41.62 85.81, 31.13 81.73, 23.12 77.03 C15.12 72.32, 7.56 65.84, 3.78 59.26 C0 52.68, -1.52 44.6, 0.45 37.53 C2.43 30.47, 8.72 22.44, 15.62 16.85 C22.52 11.26, 37.52 6.3, 41.87 3.98 C46.22 1.67, 41.19 2.39, 41.72 2.96" stroke="#1e1e1e" stroke-width="1" fill="none"></path></g><g stroke-linecap="round"><g transform="translate(376.3476926115186 491.45202574367545) rotate(359.26078298066477 64.50116829510779 15.804943990260654)"><path d="M0.61 -0.41 C6.95 4.26, 22.23 24, 37.85 29.17 C53.47 34.35, 79.11 35.9, 94.36 30.65 C109.6 25.41, 123.47 2.99, 129.34 -2.29 M-0.53 -1.67 C5.71 3.73, 21.45 25.66, 37.16 30.75 C52.86 35.85, 78.33 34.25, 93.73 28.9 C109.12 23.55, 123.8 3.5, 129.53 -1.35" stroke="#1e1e1e" stroke-width="1" fill="none"></path></g></g><mask></mask><g stroke-linecap="round"><g transform="translate(158.6328125 225.328125) rotate(0 102.92383196925749 48.908636802062375)"><path d="M0.77 -0.99 C34.91 15.32, 169.8 82.12, 203.78 98.81 M-0.29 1.1 C34.34 16.94, 172.09 80.8, 206.13 96.8" stroke="#1e1e1e" stroke-width="1" fill="none"></path></g><g transform="translate(158.6328125 225.328125) rotate(0 102.92383196925749 48.908636802062375)"><path d="M174.59 93.07 C182.93 94.85, 189.83 95.49, 207.63 98.67 M175.75 94.11 C182.51 94.48, 188.85 96.38, 205.48 96.86" stroke="#1e1e1e" stroke-width="1" fill="none"></path></g><g transform="translate(158.6328125 225.328125) rotate(0 102.92383196925749 48.908636802062375)"><path d="M183.27 74.47 C189.92 80.23, 194.98 84.8, 207.63 98.67 M184.42 75.52 C189.36 79.65, 193.9 85.39, 205.48 96.86" stroke="#1e1e1e" stroke-width="1" fill="none"></path></g></g><mask></mask><g stroke-linecap="round"><g transform="translate(735.2285117807423 181.45073819793765) rotate(0 -111.81651875859126 70.24244335029272)"><path d="M-0.88 0.84 C-38.14 23.98, -187.29 115.78, -224.5 139.16 M0.86 0.24 C-35.94 23.48, -184.53 117.07, -222.19 140.25" stroke="#1e1e1e" stroke-width="1" fill="none"></path></g><g transform="translate(735.2285117807423 181.45073819793765) rotate(0 -111.81651875859126 70.24244335029272)"><path d="M-202.3 115.33 C-209.22 121.11, -210.15 125.58, -222.3 141.12 M-203.2 116.37 C-208.74 122.84, -212.77 129.19, -223.14 140.29" stroke="#1e1e1e" stroke-width="1" fill="none"></path></g><g transform="translate(735.2285117807423 181.45073819793765) rotate(0 -111.81651875859126 70.24244335029272)"><path d="M-191.44 132.75 C-200.84 134.52, -204.22 135.08, -222.3 141.12 M-192.34 133.78 C-200.62 135.87, -207.34 137.9, -223.14 140.29" stroke="#1e1e1e" stroke-width="1" fill="none"></path></g></g><mask></mask><g transform="translate(397.2454833984375 412.14453125) rotate(0 43.6099853515625 35)"><text x="43.6099853515625" y="0" font-family="Virgil, Segoe UI Emoji" font-size="28px" fill="#1e1e1e" text-anchor="middle" style="white-space: pre;" direction="ltr" dominant-baseline="text-before-edge">Vector</text><text x="43.6099853515625" y="35" font-family="Virgil, Segoe UI Emoji" font-size="28px" fill="#1e1e1e" text-anchor="middle" style="white-space: pre;" direction="ltr" dominant-baseline="text-before-edge">DB</text></g></svg>